<svg width="17" height="16" viewBox="0 0 17 16" fill="none" xmlns="http://www.w3.org/2000/svg">
<path d="M5.5 16C6.32843 16 7 15.3284 7 14.5C7 13.6716 6.32843 13 5.5 13C4.67157 13 4 13.6716 4 14.5C4 15.3284 4.67157 16 5.5 16Z" fill="#A6A6A6"/>
<path d="M13.5 16C14.3284 16 15 15.3284 15 14.5C15 13.6716 14.3284 13 13.5 13C12.6716 13 12 13.6716 12 14.5C12 15.3284 12.6716 16 13.5 16Z" fill="#A6A6A6"/>
<path d="M15.9498 3.08475L5.02072 3.22668L4.57042 1.05052L0.922729 1.09789L0.951061 3.27953L2.98189 3.25315L5.09421 13.0447L16.0773 12.9021L16.049 10.7205L10.4904 10.7927L16.0199 8.48539L15.9498 3.08475Z" fill="#A6A6A6"/>
</svg>
